HIERARCHY
ROOT reference
{
  OFFSET -65.3212 -1.93545 -120.338
  CHANNELS 6 Xposition Yposition Zposition Zrotation Xrotation Yrotation
  JOINT Hips
  {
    OFFSET 0 78.7191 0
    CHANNELS 6 Xposition Yposition Zposition Zrotation Xrotation Yrotation
    JOINT Chest
    {
      OFFSET 0 8.7983 -4.7612
      CHANNELS 6 Xposition Yposition Zposition Zrotation Xrotation Yrotation
      JOINT Chest2
      {
        OFFSET 0 8.0291 0.4195
        CHANNELS 6 Xposition Yposition Zposition Zrotation Xrotation Yrotation
        JOINT Chest3
        {
          OFFSET 0 9.9351 -2.2114
          CHANNELS 6 Xposition Yposition Zposition Zrotation Xrotation Yrotation
          JOINT Neck
          {
            OFFSET 0 22.3885 -0.4656
            CHANNELS 6 Xposition Yposition Zposition Zrotation Xrotation Yrotation
            JOINT Head
            {
              OFFSET -0.0001 12.643 3.4389
              CHANNELS 6 Xposition Yposition Zposition Zrotation Xrotation Yrotation
              End Site
              {
                OFFSET 0.0001 17.6655 0.5274
              }
            }
          }
          JOINT LeftCollar
          {
            OFFSET 2.2603 21.606 7.4023
            CHANNELS 6 Xposition Yposition Zposition Zrotation Xrotation Yrotation
            JOINT LeftShoulder
            {
              OFFSET 13.5163 -1.1332 -5.0146
              CHANNELS 6 Xposition Yposition Zposition Zrotation Xrotation Yrotation
              JOINT LeftElbow
              {
                OFFSET -0.0995 -28.05 -0.2431
                CHANNELS 6 Xposition Yposition Zposition Zrotation Xrotation Yrotation
                JOINT LeftWrist
                {
                  OFFSET 0.0679 -23.3996 -0.1402
                  CHANNELS 6 Xposition Yposition Zposition Zrotation Xrotation Yrotation
                  JOINT LeftFinger1
                  {
                    OFFSET 0.7932 -9.069 2.5189
                    CHANNELS 6 Xposition Yposition Zposition Zrotation Xrotation Yrotation
                    JOINT LeftFinger11
                    {
                      OFFSET -0.8272 -3.3923 0.5977
                      CHANNELS 6 Xposition Yposition Zposition Zrotation Xrotation Yrotation
                      JOINT LeftFinger12
                      {
                        OFFSET -0.5649 -2.3158 0.4082
                        CHANNELS 6 Xposition Yposition Zposition Zrotation Xrotation Yrotation
                        End Site
                        {
                          OFFSET -0.4919 -1.6479 0.2673
                        }
                      }
                    }
                  }
                  JOINT LeftFinger2
                  {
                    OFFSET 0.9159 -9.2044 0.2193
                    CHANNELS 6 Xposition Yposition Zposition Zrotation Xrotation Yrotation
                    JOINT LeftFinger21
                    {
                      OFFSET 0.0117 -4.1944 -0.0248
                      CHANNELS 6 Xposition Yposition Zposition Zrotation Xrotation Yrotation
                      JOINT LeftFinger22
                      {
                        OFFSET 0.0071 -2.3249 -0.0142
                        CHANNELS 6 Xposition Yposition Zposition Zrotation Xrotation Yrotation
                        End Site
                        {
                          OFFSET -0.1475 -2.0882 0.0028
                        }
                      }
                    }
                  }
                  JOINT LeftFinger3
                  {
                    OFFSET 0.6113 -8.7231 -2.0637
                    CHANNELS 6 Xposition Yposition Zposition Zrotation Xrotation Yrotation
                    JOINT LeftFinger31
                    {
                      OFFSET -0.1927 -3.8059 -0.2383
                      CHANNELS 6 Xposition Yposition Zposition Zrotation Xrotation Yrotation
                      JOINT LeftFinger32
                      {
                        OFFSET -0.1091 -2.1688 -0.1362
                        CHANNELS 6 Xposition Yposition Zposition Zrotation Xrotation Yrotation
                        End Site
                        {
                          OFFSET -0.2358 -1.9176 -0.0906
                        }
                      }
                    }
                  }
                  JOINT LeftFinger4
                  {
                    OFFSET -0.6151 -8.0947 -3.5641
                    CHANNELS 6 Xposition Yposition Zposition Zrotation Xrotation Yrotation
                    JOINT LeftFinger41
                    {
                      OFFSET -0.4882 -2.341 -0.6462
                      CHANNELS 6 Xposition Yposition Zposition Zrotation Xrotation Yrotation
                      JOINT LeftFinger42
                      {
                        OFFSET -0.3575 -1.7167 -0.4742
                        CHANNELS 6 Xposition Yposition Zposition Zrotation Xrotation Yrotation
                        End Site
                        {
                          OFFSET -0.4187 -1.5237 -0.3496
                        }
                      }
                    }
                  }
                  JOINT LeftFinger0
                  {
                    OFFSET -1.42 -1.8761 1.4223
                    CHANNELS 6 Xposition Yposition Zposition Zrotation Xrotation Yrotation
                    JOINT LeftFinger01
                    {
                      OFFSET -1.1471 -3.4929 2.6334
                      CHANNELS 6 Xposition Yposition Zposition Zrotation Xrotation Yrotation
                      JOINT LeftFinger02
                      {
                        OFFSET -0.823 -2.3 1.6571
                        CHANNELS 6 Xposition Yposition Zposition Zrotation Xrotation Yrotation
                        End Site
                        {
                          OFFSET -0.5822 -1.6914 1.1582
                        }
                      }
                    }
                  }
                }
              }
            }
          }
          JOINT RightCollar
          {
            OFFSET -2.2603 21.606 7.4023
            CHANNELS 6 Xposition Yposition Zposition Zrotation Xrotation Yrotation
            JOINT RightShoulder
            {
              OFFSET -13.5187 -1.1334 -5.0155
              CHANNELS 6 Xposition Yposition Zposition Zrotation Xrotation Yrotation
              JOINT RightElbow
              {
                OFFSET 0.0994 -28.0499 -0.2431
                CHANNELS 6 Xposition Yposition Zposition Zrotation Xrotation Yrotation
                JOINT RightWrist
                {
                  OFFSET -0.0679 -23.3996 -0.1402
                  CHANNELS 6 Xposition Yposition Zposition Zrotation Xrotation Yrotation
                  JOINT RightFinger1
                  {
                    OFFSET -0.7932 -9.0691 2.5189
                    CHANNELS 6 Xposition Yposition Zposition Zrotation Xrotation Yrotation
                    JOINT RightFinger11
                    {
                      OFFSET 0.8272 -3.3923 0.5977
                      CHANNELS 6 Xposition Yposition Zposition Zrotation Xrotation Yrotation
                      JOINT RightFinger12
                      {
                        OFFSET 0.565 -2.3158 0.4082
                        CHANNELS 6 Xposition Yposition Zposition Zrotation Xrotation Yrotation
                        End Site
                        {
                          OFFSET 0.4919 -1.6479 0.2673
                        }
                      }
                    }
                  }
                  JOINT RightFinger2
                  {
                    OFFSET -0.916 -9.2044 0.2193
                    CHANNELS 6 Xposition Yposition Zposition Zrotation Xrotation Yrotation
                    JOINT RightFinger21
                    {
                      OFFSET -0.0117 -4.1944 -0.0248
                      CHANNELS 6 Xposition Yposition Zposition Zrotation Xrotation Yrotation
                      JOINT RightFinger22
                      {
                        OFFSET -0.0071 -2.3249 -0.0142
                        CHANNELS 6 Xposition Yposition Zposition Zrotation Xrotation Yrotation
                        End Site
                        {
                          OFFSET 0.1475 -2.0882 0.0028
                        }
                      }
                    }
                  }
                  JOINT RightFinger3
                  {
                    OFFSET -0.6113 -8.7231 -2.0637
                    CHANNELS 6 Xposition Yposition Zposition Zrotation Xrotation Yrotation
                    JOINT RightFinger31
                    {
                      OFFSET 0.1927 -3.8059 -0.2383
                      CHANNELS 6 Xposition Yposition Zposition Zrotation Xrotation Yrotation
                      JOINT RightFinger32
                      {
                        OFFSET 0.1091 -2.1688 -0.1362
                        CHANNELS 6 Xposition Yposition Zposition Zrotation Xrotation Yrotation
                        End Site
                        {
                          OFFSET 0.2358 -1.9176 -0.0906
                        }
                      }
                    }
                  }
                  JOINT RightFinger4
                  {
                    OFFSET 0.6151 -8.0947 -3.564
                    CHANNELS 6 Xposition Yposition Zposition Zrotation Xrotation Yrotation
                    JOINT RightFinger41
                    {
                      OFFSET 0.4882 -2.341 -0.6462
                      CHANNELS 6 Xposition Yposition Zposition Zrotation Xrotation Yrotation
                      JOINT RightFinger42
                      {
                        OFFSET 0.3574 -1.7166 -0.4742
                        CHANNELS 6 Xposition Yposition Zposition Zrotation Xrotation Yrotation
                        End Site
                        {
                          OFFSET 0.4187 -1.5237 -0.3496
                        }
                      }
                    }
                  }
                  JOINT RightFinger0
                  {
                    OFFSET 1.4199 -1.8761 1.4221
                    CHANNELS 6 Xposition Yposition Zposition Zrotation Xrotation Yrotation
                    JOINT RightFinger01
                    {
                      OFFSET 1.1472 -3.4929 2.6336
                      CHANNELS 6 Xposition Yposition Zposition Zrotation Xrotation Yrotation
                      JOINT RightFinger02
                      {
                        OFFSET 0.8229 -2.3 1.6571
                        CHANNELS 6 Xposition Yposition Zposition Zrotation Xrotation Yrotation
                        End Site
                        {
                          OFFSET 0.5822 -1.6914 1.1582
                        }
                      }
                    }
                  }
                }
              }
            }
          }
        }
      }
    }
    JOINT RightHip
    {
      OFFSET -9.412 3.9771 -0.7758
      CHANNELS 6 Xposition Yposition Zposition Zrotation Xrotation Yrotation
      JOINT RightKnee
      {
        OFFSET -0.7531 -40.938 0
        CHANNELS 6 Xposition Yposition Zposition Zrotation Xrotation Yrotation
        JOINT RightAnkle
        {
          OFFSET 0 -40.1986 0
          CHANNELS 6 Xposition Yposition Zposition Zrotation Xrotation Yrotation
          JOINT RightToe
          {
            OFFSET 0 -4.4182 9.239
            CHANNELS 6 Xposition Yposition Zposition Zrotation Xrotation Yrotation
            End Site
            {
              OFFSET 0 0 6.1981
            }
          }
        }
      }
    }
    JOINT LeftHip
    {
      OFFSET 9.4119 3.9773 -0.7758
      CHANNELS 6 Xposition Yposition Zposition Zrotation Xrotation Yrotation
      JOINT LeftKnee
      {
        OFFSET 0.7532 -40.9383 0
        CHANNELS 6 Xposition Yposition Zposition Zrotation Xrotation Yrotation
        JOINT LeftAnkle
        {
          OFFSET 0 -40.1986 0
          CHANNELS 6 Xposition Yposition Zposition Zrotation Xrotation Yrotation
          JOINT LeftToe
          {
            OFFSET 0 -4.4182 9.239
            CHANNELS 6 Xposition Yposition Zposition Zrotation Xrotation Yrotation
            End Site
            {
              OFFSET 0 0 6.1981
            }
          }
        }
      }
    }
  }
}
MOTION
Frames:	4
Frame Time:	0.0333333
-4.13708 -43.8255 -26.9662 0 0 -0 4.44089e-015 78.7191 0 3.94535 -6.70974 -44.3541 0 8.7983 -4.7612 -2.17594 0.280217 2.93808 0 8.0291 0.4195 -4.36342 0.448359 5.88471 -3.55271e-015 9.9351 -2.2114 -4.36343 0.448359 5.88472 3.55271e-015 22.3885 -0.4656 17.2393 12.7215 41.173 -0.0001 12.643 3.4389 -14.2294 17.1644 27.8251 2.2603 21.606 7.4023 26.8414 2.42647 -17.1274 13.5163 -1.1332 -5.0146 60.7897 -47.3938 41.2424 -0.0995 -28.05 -0.2431 -160.412 -61.8346 -102.841 0.0679 -23.3996 -0.1402 18.398 1.29996 30.9833 0.7932 -9.069 2.5189 24.8683 3.87452 -5.0926 -0.8272 -3.3923 0.5977 -31.7653 18.6979 3.6501 -0.5649 -2.3158 0.4082 -36.3891 20.9688 4.99564 0.9159 -9.2044 0.2193 7.09812 5.44641 -3.1282 0.0117 -4.1944 -0.0248 -42.7842 24.7472 5.54514 0.0071 -2.3249 -0.0142 -28.8896 17.7078 1.71903 0.6113 -8.7231 -2.0637 -8.03032 7.53842 5.06403 -0.1927 -3.8059 -0.2383 -24.9401 17.1274 0.471085 -0.1091 -2.1688 -0.1362 -26.1505 17.9033 0.6832 -0.6151 -8.0947 -3.5641 -10.342 4.8935 7.47055 -0.4882 -2.341 -0.6462 -21.2942 14.6965 -0.81158 -0.3575 -1.7167 -0.4742 -19.2187 13.2933 -0.985832 -1.42 -1.8761 1.4223 -5.751 -1.3932 -51.7634 -1.1471 -3.4929 2.6334 -1.52353 -0.518476 0.261441 -0.823 -2.3 1.6571 8.53296 10.6973 -3.07916 -2.2603 21.606 7.4023 -25.9189 -0.410416 34.8163 -13.5187 -1.1334 -5.0155 -98.0615 -20.2405 -67.1502 0.0994 -28.0499 -0.2431 -141.859 -74.2852 178.084 -0.0679 -23.3996 -0.1402 -48.0481 45.0668 -36.4522 -0.793201 -9.0691 2.5189 3.03431 13.5238 3.85828 0.827201 -3.3923 0.5977 43.1926 12.9151 -5.84946 0.565 -2.3158 0.4082 45.4049 13.4036 -6.38637 -0.916001 -9.2044 0.2193 4.6791 4.96664 0.315353 -0.0117 -4.1944 -0.0248 52.3753 15.6205 -6.40184 -0.0071 -2.3249 -0.0142 21.7031 7.27507 -0.874543 -0.6113 -8.72309 -2.0637 13.4842 7.17279 -5.57724 0.1927 -3.8059 -0.2383 24.8739 9.53777 -0.686168 0.1091 -2.1688 -0.1362 26.4236 10.1016 -0.863871 0.6151 -8.0947 -3.564 -1.85294 3.90576 -6.55946 0.4882 -2.341 -0.6462 27.102 10.2324 -0.128077 0.3574 -1.7166 -0.4742 19.1023 7.25746 0.417166 1.4199 -1.8761 1.4221 10.0706 -15.1801 49.4044 1.1472 -3.4929 2.6336 1.02802 -0.589852 -1.10598 0.822901 -2.3 1.6571 -7.18417 14.5324 5.59918 -9.412 3.9771 -0.7758 -32.4406 16.8034 1.92037 -0.7531 -40.938 3.55271e-015 118.905 70.302 -105.021 0 -40.1986 -1.77636e-015 -10.5608 -10.9353 7.4734 0 -4.4182 9.239 -8.39943 40.4559 -4.52262 9.4119 3.9773 -0.7758 21.8618 6.28644 15.3962 0.7532 -40.9383 7.10543e-015 -178.388 74.2091 176.352 1.77636e-015 -40.1986 -8.88179e-016 1.45241 10.3937 -34.1225 -7.10543e-015 -4.4182 9.239 8.37876 38.6769 15.5699 
-3.11831 -44.9348 -27.6098 0 0 -0 4.88498e-015 78.7191 0 3.94028 -5.96335 -45.1424 0 8.7983 -4.7612 -2.15022 0.301559 2.66792 0 8.0291 0.4195 -4.31224 0.502516 5.3454 0 9.9351 -2.2114 -4.31224 0.502517 5.34539 0 22.3885 -0.4656 17.6172 12.2826 41.8669 -0.0001 12.643 3.4389 -13.7279 17.2404 27.8682 2.2603 21.606 7.4023 26.46 2.57001 -17.0101 13.5163 -1.1332 -5.0146 62.4712 -47.7052 42.5047 -0.0995 -28.05 -0.2431 -160.035 -62.3781 -102.345 0.0679 -23.3996 -0.1402 19.5862 1.48046 29.0243 0.7932 -9.069 2.5189 25.6423 3.64614 -5.06578 -0.8272 -3.3923 0.5977 -31.6642 18.6464 3.62272 -0.5649 -2.3158 0.4082 -36.3891 20.9688 4.99564 0.9159 -9.2044 0.2193 7.32818 5.54714 -3.2486 0.0117 -4.1944 -0.0248 -42.7842 24.7471 5.54511 0.0071 -2.3249 -0.0142 -29.4816 18.0362 1.84628 0.6113 -8.7231 -2.0637 -8.07087 7.56106 5.06437 -0.1927 -3.8059 -0.2383 -25.2625 17.3351 0.526079 -0.1091 -2.1688 -0.1362 -26.4586 18.0992 0.739958 -0.6151 -8.0947 -3.5641 -11.0257 5.07391 7.52004 -0.4882 -2.341 -0.6462 -21.3911 14.7618 -0.802609 -0.3575 -1.7167 -0.4742 -19.5221 13.4965 -0.954813 -1.42 -1.8761 1.4223 -5.58353 -0.962771 -51.8328 -1.1471 -3.4929 2.6334 -1.43776 -0.543013 0.253833 -0.823 -2.3 1.6571 8.53296 10.6972 -3.07916 -2.2603 21.606 7.4023 -26.5221 -0.697529 35.5741 -13.5187 -1.1334 -5.0155 -97.138 -19.6784 -67.1321 0.0994 -28.0499 -0.2431 -141.24 -73.5518 178.861 -0.0679 -23.3996 -0.1402 -46.9303 44.9705 -37.5092 -0.7932 -9.0691 2.5189 3.87102 13.6312 3.63906 0.8272 -3.3923 0.5977 43.3014 12.9396 -5.87545 0.565 -2.3158 0.4082 45.4049 13.4036 -6.38632 -0.916 -9.2044 0.2193 4.86412 4.81889 0.186533 -0.0117 -4.1944 -0.0248 52.3753 15.6205 -6.40176 -0.0071 -2.3249 -0.0142 21.0792 7.07461 -0.811297 -0.6113 -8.7231 -2.0637 13.441 7.16105 -5.57373 0.1927 -3.8059 -0.2383 24.531 9.41202 -0.64871 0.1091 -2.1688 -0.1362 26.0882 9.97995 -0.823933 0.6151 -8.0947 -3.564 -2.55352 3.89595 -6.54603 0.4882 -2.341 -0.6462 26.9996 10.1951 -0.118478 0.3574 -1.7166 -0.4742 18.7777 7.13471 0.430397 1.4199 -1.8761 1.4221 10.1224 -15.634 49.3042 1.1472 -3.4929 2.6336 1.05694 -0.57845 -1.139 0.8229 -2.3 1.6571 -7.18357 14.5322 5.59893 -9.412 3.9771 -0.7758 -32.7953 16.7118 1.81959 -0.7531 -40.938 -3.55271e-015 120 69.9161 -105.604 7.10543e-015 -40.1986 -3.55271e-015 -11.7923 -11.3649 6.41396 0 -4.4182 9.239 -8.74277 42.1802 -4.29761 9.4119 3.9773 -0.7758 22.4896 6.33106 15.6714 0.7532 -40.9383 0 -178.535 73.0798 176.499 -3.55271e-015 -40.1986 -4.44089e-015 1.9423 10.1695 -34.5099 3.55271e-015 -4.4182 9.239 8.7226 39.7983 16.1139 
-2.16238 -45.9914 -28.4824 0 0 -0 4.88498e-015 78.7191 0 3.94715 -4.89474 -46.0208 0 8.7983 -4.7612 -2.1227 0.313478 2.38995 0 8.0291 0.4195 -4.25671 0.537971 4.79003 0 9.9351 -2.2114 -4.25671 0.537969 4.79004 -3.55271e-015 22.3885 -0.4656 18.0624 11.714 42.6197 -0.0001 12.643 3.4389 -13.333 17.218 27.8602 2.2603 21.606 7.4023 26.0491 2.74174 -16.8172 13.5163 -1.1332 -5.0146 64.483 -47.7864 44.0029 -0.0995 -28.05 -0.2431 -159.802 -62.7686 -101.877 0.0679 -23.3996 -0.1402 20.7164 1.67916 26.9853 0.7932 -9.069 2.5189 26.3911 3.42837 -5.03475 -0.8272 -3.3923 0.5977 -31.5632 18.5949 3.59539 -0.5649 -2.3158 0.4082 -36.3892 20.9688 4.99565 0.9159 -9.2044 0.2193 7.55851 5.64748 -3.36948 0.0117 -4.1944 -0.0248 -42.7842 24.7471 5.54506 0.0071 -2.3249 -0.0142 -30.0374 18.3426 1.96885 0.6113 -8.7231 -2.0637 -8.11142 7.58376 5.06471 -0.1927 -3.8059 -0.2383 -25.5649 17.5292 0.578723 -0.1091 -2.1688 -0.1362 -26.7672 18.2949 0.797876 -0.6151 -8.0947 -3.5641 -11.6778 5.24633 7.57324 -0.4882 -2.341 -0.6462 -21.4881 14.8271 -0.793525 -0.3575 -1.7167 -0.4742 -19.8049 13.6889 -0.934453 -1.42 -1.8761 1.4223 -5.42115 -0.546203 -51.9002 -1.1471 -3.4929 2.6334 -1.35848 -0.565826 0.246476 -0.823 -2.3 1.6571 8.53296 10.6973 -3.07916 -2.2603 21.606 7.4023 -27.1009 -0.980132 36.3641 -13.5187 -1.1334 -5.0155 -96.3639 -19.0006 -67.1797 0.0994 -28.0499 -0.2431 -140.82 -72.6552 179.39 -0.0679 -23.3996 -0.1402 -46.1119 44.8041 -38.4998 -0.7932 -9.0691 2.5189 4.68202 13.7332 3.4208 0.8272 -3.3923 0.5977 43.4102 12.9641 -5.9015 0.565 -2.3158 0.4082 45.4048 13.4036 -6.38633 -0.916001 -9.2044 0.2193 5.04875 4.67072 0.0582317 -0.0117 -4.1944 -0.0248 52.3753 15.6204 -6.40189 -0.0071 -2.3249 -0.0142 20.4943 6.88593 -0.753944 -0.6113 -8.7231 -2.0637 13.3978 7.14929 -5.57022 0.1927 -3.8059 -0.2383 24.198 9.28962 -0.613066 0.1091 -2.1688 -0.1362 25.7673 9.86326 -0.786359 0.6151 -8.0947 -3.564 -3.23152 3.88768 -6.53673 0.4882 -2.341 -0.6462 26.8971 10.1577 -0.108906 0.3574 -1.7166 -0.4742 18.468 7.01748 0.442375 1.4199 -1.8761 1.4221 10.1644 -16.0605 49.2067 1.1472 -3.4929 2.6336 1.08512 -0.567466 -1.17083 0.822901 -2.3 1.6571 -7.183 14.532 5.59871 -9.412 3.9771 -0.7758 -33.0375 16.1422 1.37204 -0.7531 -40.938 0 121.89 69.3487 -106.998 0 -40.1986 0 -12.8643 -11.6103 5.71923 0 -4.4182 9.239 -9.10398 43.87 -4.03585 9.4119 3.9773 -0.7758 23.6489 6.12371 16.2113 0.7532 -40.9383 3.55271e-015 -178.667 71.7792 176.591 -1.77636e-015 -40.1986 -1.77636e-015 2.42121 9.88947 -34.6021 -3.55271e-015 -4.4182 9.239 9.03936 41.0204 16.6174 
-1.14645 -46.9568 -29.4005 0 0 -0 4.88498e-015 78.7191 0 4.04266 -3.69882 -47.165 0 8.7983 -4.7612 -2.03114 0.300789 2.14367 0 8.0291 0.4195 -4.07217 0.525218 4.29669 0 9.9351 -2.2114 -4.07218 0.525217 4.29671 0 22.3885 -0.4656 18.3865 11.1984 43.4012 -0.0001 12.643 3.4389 -13.1305 17.3041 27.8294 2.2603 21.606 7.4023 25.7262 2.93568 -16.565 13.5163 -1.1332 -5.0146 65.8523 -47.4161 45.1033 -0.0995 -28.05 -0.2431 -160 -62.8102 -101.59 0.0679 -23.3996 -0.1402 21.8344 1.56482 24.7732 0.7932 -9.069 2.5189 27.112 3.22162 -5.00014 -0.8272 -3.3923 0.5977 -31.4734 18.5491 3.57118 -0.5649 -2.3158 0.4082 -36.3892 20.9688 4.99571 0.9159 -9.2044 0.2193 7.76877 5.73944 -3.47927 0.0117 -4.1944 -0.0248 -42.7841 24.7471 5.54506 0.0071 -2.3249 -0.0142 -30.5951 18.6477 2.0948 0.6113 -8.7231 -2.0637 -8.15198 7.60647 5.06511 -0.1927 -3.8059 -0.2383 -25.8678 17.7231 0.632499 -0.1091 -2.1688 -0.1362 -27.0537 18.476 0.852588 -0.6151 -8.0947 -3.5641 -12.3056 5.41226 7.62875 -0.4882 -2.341 -0.6462 -21.5851 14.8924 -0.784391 -0.3575 -1.7167 -0.4742 -20.088 13.8812 -0.913077 -1.42 -1.8761 1.4223 -5.26446 -0.145169 -51.9653 -1.1471 -3.4929 2.6334 -1.27932 -0.588704 0.238856 -0.823 -2.3 1.6571 8.53297 10.6973 -3.07917 -2.2603 21.606 7.4023 -27.6473 -1.25729 37.1708 -13.5187 -1.1334 -5.0155 -96.0673 -18.5237 -67.3844 0.0994 -28.0499 -0.2431 -141.015 -72.0852 179.283 -0.0679 -23.3996 -0.1402 -45.5075 44.5794 -39.4329 -0.7932 -9.0691 2.5189 5.46424 13.8292 3.2045 0.8272 -3.3923 0.5977 43.5024 12.9848 -5.92359 0.565 -2.3158 0.4082 45.4048 13.4036 -6.38629 -0.916 -9.2044 0.2193 5.23303 4.52216 -0.0695747 -0.0117 -4.1944 -0.0248 52.3753 15.6204 -6.40189 -0.0071 -2.3249 -0.0142 19.9097 6.69665 -0.698605 -0.6113 -8.7231 -2.0637 13.3547 7.13752 -5.56672 0.1927 -3.8059 -0.2383 23.8758 9.17093 -0.579276 0.1091 -2.1688 -0.1362 25.4465 9.7464 -0.749462 0.6151 -8.0947 -3.564 -3.8844 3.88097 -6.53142 0.4882 -2.341 -0.6462 26.7947 10.1204 -0.0994431 0.3574 -1.7166 -0.4742 18.1585 6.9002 0.453714 1.4199 -1.8761 1.4221 10.2058 -16.4871 49.1093 1.1472 -3.4929 2.6336 1.11216 -0.556914 -1.20122 0.8229 -2.3 1.6571 -7.18243 14.5318 5.59848 -9.412 3.9771 -0.7758 -33.5523 15.1056 1.13952 -0.7531 -40.938 -3.55271e-015 124.228 68.6235 -108.814 7.10543e-015 -40.1986 0 -13.5059 -11.8085 5.94272 7.10543e-015 -4.4182 9.239 -9.49217 45.1156 -3.81494 9.4119 3.9773 -0.7758 24.8906 5.8793 17.2358 0.7532 -40.9383 0 -178.824 70.4087 176.75 3.55271e-015 -40.1986 3.55271e-015 2.95736 9.52865 -34.3619 3.55271e-015 -4.4182 9.239 9.2704 42.358 17.0156 
